PathFileType	4	(X/Y/Z)	C:/Users/beibeiliu/ov580/test_trc/User3\sequence.7_training_dense_right.trc
DataRate	CameraRate	NumFrames	NumMarkers	Units	OrigDataRate	OrigDataStartFrame	OrigNumFrames
120	120	24	19	mm	120	1	200
Frame#	Time	ThumbCMC			ThumbMCP			ThumbIP			ThumbTip			IndexMCP			IndexPIP			IndexTip			MiddleMCP			MiddlePIP			MiddleTip			RingMCP			RingPIP			RingTip			PinkyMCP			PinkyPIP			PinkyTip			BackHand1			BackHand2			BackHand3	
		X0	Y0	Z0	X1	Y1	Z1	X2	Y2	Z2	X3	Y3	Z3	X4	Y4	Z4	X5	Y5	Z5	X6	Y6	Z6	X7	Y7	Z7	X8	Y8	Z8	X9	Y9	Z9	X10	Y10	Z10	X11	Y11	Z11	X12	Y12	Z12	X13	Y13	Z13	X14	Y14	Z14	X15	Y15	Z15	X16	Y16	Z16	X17	Y17	Z17	X18	Y18	Z18	
0	0	57.7808	-21.6455	-5.08823	30.7128	-37.094	-20.9615	13.2	-51.4847	-41.3315	3.55647	-64.5219	-57.3341	55.0083	-14.4707	-82.2635	38.8609	-22.103	-107.859	24.9085	-29.291	-124.255	83.9217	-15.7799	-92.3216	72.2894	-19.1461	-119.277	64.787	-31.4947	-149.121	103.854	-25.6841	-86.5996	103.461	-29.2497	-113.681	103.724	-40.2609	-140.312	123.463	-42.3088	-73.2855	131.403	-51.8157	-92.9569	138.415	-62.6936	-110.296	111.615	-13.1723	-39.5711	118.452	-5.93272	-9.84657	84.1819	-0.552445	-20.3744	
1	0.00833333	53.1524	-22.5767	-9.02998	33.1882	-37.6973	-20.5493	13.2555	-52.1721	-43.3466	0.835891	-65.7234	-55.452	52.9759	-15.0734	-81.8063	35.2934	-20.6675	-106.497	25.4124	-32.458	-127.733	78.328	-15.5812	-90.6289	68.2387	-21.2637	-122.628	61.1479	-33.5969	-150.318	98.9927	-24.9718	-88.9655	104.637	-31.7381	-111.451	97.6892	-44.2143	-139.448	119.822	-42.8286	-73.3737	127.224	-54.2116	-95.456	126.51	-68.2563	-114.654	109.445	-13.7368	-39.1703	116.799	-7.90201	-9.84462	81.6867	-0.053959	-22.8596	
2	0.0166667	52.5725	-22.3459	-3.33333	32.8052	-39.1176	-23.4986	12.7137	-52.7614	-43.6953	5.98415	-66.1824	-60.2839	53.2562	-14.0312	-81.9509	36.4835	-18.5935	-102.964	27.8985	-30.624	-125.405	76.9188	-15.1531	-95.178	67.479	-21.2618	-121.765	59.9554	-37.0564	-150.314	100.295	-26.8902	-87.8719	97.8956	-33.8664	-111.414	92.9755	-52.9531	-135.425	118.092	-42.217	-75.4466	122.032	-56.4568	-93.8966	118.039	-72.4083	-110.488	109.85	-13.8672	-39.6443	119.069	-9.09317	-12.0805	83.7564	-0.196603	-20.597	
3	0.025	51.5653	-21.7597	-6.29101	32.1645	-37.6589	-23.1108	16.9906	-51.3471	-49.9979	9.78643	-65.5327	-67.2034	54.3903	-8.47131	-79.0769	38.4088	-15.0996	-107.415	31.8936	-27.6815	-127.803	83.1844	-12.3177	-92.7558	72.9097	-19.7966	-122.894	63.7514	-37.5438	-146.915	98.0337	-25.2839	-89.153	94.9732	-39.7707	-114.253	84.3427	-62.6914	-128.025	116.036	-41.1431	-74.3189	115.503	-56.0146	-92.9096	103.36	-80.8522	-106.145	108.772	-10.0514	-37.8542	118.05	-10.909	-6.90761	80.511	1.10112	-21.5931	
4	0.0333333	50.9273	-17.734	-9.26418	35.3719	-33.7733	-29.1765	21.8161	-45.5847	-56.0453	18.391	-58.8764	-76.889	59.3649	0.0822791	-83.1925	44.7903	-2.76761	-106.666	38.2522	-17.8411	-129.021	83.4946	-3.20741	-87.8063	75.784	-11.2545	-122.27	66.147	-27.7064	-145.598	98.5831	-22.4238	-83.8504	89.813	-40.1143	-111.691	78.7241	-67.8222	-118.968	116.421	-38.1406	-72.1006	107.189	-56.8032	-94.7644	91.4486	-79.6868	-94.0225	111.123	-7.54065	-32.8722	121.41	-8.65261	-4.99757	87.2581	2.98249	-16.8349	
5	0.0416667	50.7107	-15.265	-13.4183	37.7343	-30.0275	-34.3984	25.4645	-40.8629	-57.6048	21.8872	-51.9827	-80.0834	58.534	7.96559	-82.0929	50.5326	4.92747	-111.046	34.8619	-5.53406	-133.169	89.4406	4.43632	-88.3634	85.3607	1.27377	-120.498	74.2127	-13.3765	-147.129	98.6451	-17.2498	-88.2983	95.2135	-36.6237	-110.13	79.5728	-62.3791	-111.853	117.059	-34.0112	-77.0665	106.61	-50.2351	-92.5498	88.3655	-77.6739	-86.0467	114.831	-4.47747	-35.8012	117.028	-5.21927	-6.7983	85.9398	7.29556	-20.8022	
6	0.05	51.0294	-15.8349	-15.7485	32.2941	-29.0826	-36.1814	19.5664	-40.4438	-63.6765	17.6981	-52.9122	-83.73	59.1052	11.2367	-84.138	45.2026	11.6806	-111.6	41.1435	2.23541	-136.035	88.9706	11.8245	-89.4799	88.2752	10.4292	-120.894	83.5198	-3.50267	-151.565	105.256	-14.9319	-89.9777	100.416	-36.1335	-110.001	87.776	-64.1606	-108.434	117.945	-28.1746	-75.1831	110.485	-53.0449	-90.634	91.1548	-74.0443	-78.5422	110.709	2.40433	-33.2264	112.328	-0.993635	-4.69731	80.9544	9.38061	-21.4288	
7	0.0583333	50.2157	-19.5537	-14.344	34.5291	-34.5144	-38.9553	23.9838	-47.6536	-64.5928	22.3889	-60.432	-86.9863	59.4444	7.85156	-86.6985	51.3392	5.55644	-117.253	43.3037	-4.27121	-141.812	94.8629	9.29835	-92.2854	95.3155	7.95612	-123.63	96.7238	-10.6373	-155.748	110.97	-19.0304	-90.2309	108.826	-43.3598	-107.376	94.2286	-69.1547	-101.729	124.143	-28.7874	-73.1541	117.775	-52.4266	-87.3119	100.168	-76.0882	-72.701	110.545	4.70507	-38.3167	111.954	1.53087	-3.3217	77.7197	8.74425	-20.942	
8	0.0666667	57.1642	-31.0764	-18.5999	41.9613	-50.5071	-35.8113	34.3641	-66.4486	-57.8301	31.2982	-83.043	-77.2017	66.9008	-16.8564	-91.0721	57.8906	-23.2452	-118.427	55.419	-37.5523	-138.587	101.347	-12.8864	-92.4535	105.044	-23.7216	-125.897	105.033	-45.6854	-145.672	115.422	-35.9062	-83.2382	116.244	-64.4116	-96.6521	103.767	-92.1834	-77.7851	132.595	-46.468	-67.7513	123.823	-72.8562	-73.7932	110.667	-88.1189	-53.3581	117.28	-6.19442	-37.7021	116.319	-3.50689	-7.36831	82.659	-2.76987	-23.3216	
9	0.075	55.9763	-37.4477	-7.40919	43.0299	-62.6569	-23.9194	31.8915	-81.2986	-41.2663	27.1994	-101.15	-58.1694	68.857	-47.3657	-85.5537	56.3514	-59.9818	-106.098	52.777	-83.9062	-124.987	98.0847	-47.2366	-91.4191	102.072	-69.6433	-115.732	98.9976	-99.0488	-125.857	114.617	-66.7003	-72.7158	110.919	-97.5978	-76.4698	97.2825	-113.561	-49.5565	132.86	-74.0252	-54.6579	121.214	-99.7339	-52.351	101.373	-103.717	-30.8701	113.335	-25.6722	-34.8791	118.647	-15.1576	-9.97494	86.8476	-13.8877	-24.0139	
10	0.0833333	59.0565	-32.6441	-5.8101	34.1053	-53.6419	-14.5973	15.3505	-72.6413	-24.7237	8.20684	-94.543	-36.1263	59.1159	-59.1224	-73.3935	41.7302	-78.8421	-95.1649	35.7174	-100.759	-104.562	88.1554	-74.0011	-80.6124	84.0297	-99.1001	-97.2509	69.8653	-131.633	-95.6498	98.945	-93.4393	-60.8453	87.1205	-119.138	-53.5926	72.9514	-121.639	-23.3358	116.579	-97.2828	-40.8904	98.5931	-116.396	-32.7354	80.4367	-105.822	-7.66259	113.464	-40.7971	-32.7794	122.743	-23.9253	-10.2313	89.6538	-22.3169	-24.0157	
11	0.0916667	65.0282	-13.3792	-3.48786	38.0665	-28.234	-11.063	7.39837	-39.9008	-21.5849	-10.2408	-57.1016	-27.5462	48.9723	-51.2312	-71.1892	28.5767	-67.0588	-88.0332	7.54887	-85.7163	-91.2451	69.4555	-74.1427	-71.545	52.105	-101.7	-84.4125	25.5457	-122.91	-77.162	74.4309	-94.8736	-50.5705	54.555	-113.111	-37.9683	40.4326	-102.927	-7.76322	85.2203	-101.862	-33.5486	64.4219	-111.174	-16.5455	58.6087	-91.0486	4.41717	110.077	-54.2653	-34.8292	125.063	-35.9072	-12.1462	92.0225	-21.7907	-29.7651	
12	0.1	77.4411	6.95777	-11.1433	47.1757	4.46084	-17.8016	19.3626	5.33912	-25.1903	-4.08773	-2.54866	-31.8843	48.8506	-29.1597	-77.1257	24.4311	-36.8021	-90.896	-0.416418	-40.2914	-92.7284	54.5019	-61.3299	-74.676	28.0609	-79.6803	-80.3114	-2.23184	-86.6126	-72.8048	50.9984	-76.5315	-48.298	24.9476	-83.8934	-32.0708	14.5217	-65.718	-8.04894	59.7906	-88.1894	-29.0303	36.491	-82.9622	-15.501	38.132	-59.6647	3.17695	104.068	-52.2734	-35.0577	122.132	-42.2385	-12.0892	104.026	-15.851	-31.9291	
13	0.108333	94.2795	13.8213	-20.0448	67.6531	28.7652	-29.4345	43.7833	37.3344	-41.8612	21.4166	41.4706	-48.0227	60.8143	-12.8802	-81.6119	36.4225	-9.04135	-101.283	6.45786	-1.90145	-105.703	54.9594	-44.6151	-74.9236	25.4615	-48.1293	-88.273	-12.2005	-42.6139	-84.1813	38.4334	-52.037	-51.0404	13.9724	-40.7302	-43.6914	6.26122	-25.5481	-18.4202	44.7241	-63.4618	-30.6629	21.792	-46.3569	-19.4229	28.5482	-26.2301	-5.3519	98.6485	-47.5557	-32.9392	115.962	-45.1952	-12.6023	112.485	-14.8088	-35.2379	
14	0.116667	109.392	16.4287	-25.9637	93.0243	39.0983	-39.0949	73.5979	52.1925	-56.496	51.9225	62.4687	-70.905	74.5452	-3.511	-93.0039	53.385	5.45465	-112.754	33.8579	20.6282	-121.322	56.7794	-28.3485	-83.8064	30.1838	-27.5714	-97.3853	-2.2311	-9.26803	-102.334	37.1624	-30.734	-57.6431	13.2978	-9.6253	-52.5435	13.1455	13.7876	-30.9396	36.703	-39.0843	-37.6899	17.1033	-19.3622	-29.8345	33.3892	3.84687	-13.1322	88.6011	-47.3919	-32.5958	108.966	-45.5594	-10.4142	112.461	-19.7475	-37.5626	
15	0.125	120.801	6.67499	-30.4069	109.291	27.9868	-47.2095	99.4971	45.5532	-68.327	84.8917	57.1822	-83.5586	88.704	-13.0878	-96.7569	75.0983	-1.05868	-122.129	60.5513	14.9952	-136.519	60.8646	-32.2572	-89.3049	39.3074	-22.8051	-110.306	16.1396	-3.61569	-120.505	43.4035	-22.5554	-68.7213	21.5133	-3.55692	-66.4312	23.2939	25.9256	-47.7536	34.7079	-30.253	-45.1417	22.1449	-5.11014	-42.8243	39.9221	14.7736	-27.3883	82.8521	-51.8577	-30.6518	96.742	-53.5266	-7.64596	114.957	-30.9957	-33.041	
16	0.133333	125.543	-13.8445	-28.494	122.946	6.97429	-53.7118	114.616	19.2732	-79.904	106.793	32.1534	-98.2061	102.07	-40.7102	-97.2855	97.0219	-33.3575	-124.944	81.3187	-20.2824	-146.34	73.7969	-55.1414	-87.8394	55.1736	-49.4579	-113.467	31.4932	-31.0292	-129.032	54.2738	-40.7646	-70.9272	35.2767	-13.6813	-79.7968	38.2782	16.1349	-66.6782	40.6346	-42.4947	-49.6065	33.2575	-12.8887	-56.5485	50.1103	5.99136	-41.4558	84.4945	-64.4472	-27.5051	95.0221	-64.159	0.631924	116.662	-49.3239	-27.0851	
17	0.141667	135.015	-31.7482	-29.8597	128.532	-16.9686	-56.9752	129.645	-3.90761	-81.2264	123.093	3.72389	-101.62	116.571	-72.3564	-92.1941	115.142	-71.3423	-121.136	106.517	-61.9929	-144.556	85.504	-86.1097	-85.6781	69.9999	-85.1206	-113.892	53.6445	-68.9653	-137.643	66.4405	-67.585	-75.8501	46.6	-42.6273	-86.2851	49.7266	-14.6052	-80.4362	51.8975	-65.4598	-57.202	43.4878	-38.7658	-64.4159	53.2131	-16.3661	-49.5486	91.892	-84.6441	-22.9505	101.327	-78.3774	7.14333	127.173	-66.7133	-22.9297	
18	0.15	144.968	-37.6655	-25.1288	136.826	-28.9053	-56.819	135.579	-17.753	-81.8347	129.098	-13.5629	-105.886	141.198	-86.0332	-84.9974	141.326	-90.8067	-113.222	130.357	-87.8713	-142.797	114.39	-108.759	-83.1159	100.273	-114.334	-106.39	76.9474	-104.594	-134.255	85.3756	-97.0282	-69.4749	67.2416	-80.4042	-89.3377	59.358	-47.3411	-84.9361	72.287	-94.7863	-53.4526	59.0243	-69.9483	-67.684	62.2085	-47.4565	-54.9339	114.874	-99.2817	-21.8571	117.994	-87.6154	7.32268	140.686	-78.216	-17.8742	
19	0.158333	146.973	-35.0799	-26.7739	136.831	-31.5003	-56.2848	131.464	-23.7503	-80.663	124.41	-21.1169	-105.815	163.392	-80.1042	-80.9111	168.099	-83.9436	-112.009	159.896	-81.9004	-138.129	146.481	-113.682	-79.3151	138.477	-120.902	-107.858	116.498	-118.888	-136.145	116.593	-111.224	-73.1257	95.5388	-101.028	-91.3984	74.1966	-74.8349	-86.2373	104.497	-112.785	-52.8553	82.6296	-99.0106	-67.1957	79.409	-68.7448	-58.8842	143.839	-102.418	-21.7104	140.983	-92.8738	7.68211	158.411	-71.8596	-13.6557	
20	0.166667	140.385	-28.2202	-26.7805	128.953	-22.8824	-52.4176	120.459	-15.6994	-82.6413	114.97	-24.5971	-104.578	177.981	-59.3065	-82.6425	182.385	-54.1587	-112.628	173.136	-57.0281	-138.98	177.726	-86.6992	-78.796	176.461	-99.4844	-107.84	155.055	-105.026	-141.177	150.748	-102.842	-75.2569	125.268	-103.929	-93.7735	97.2096	-95.8089	-87.889	136.02	-116.362	-55.9713	112.507	-110.903	-67.8199	94.7842	-87.3852	-57.944	167.417	-89.5579	-16.4726	161.43	-80.6605	10.4939	168.755	-49.9105	-19.8441	
21	0.175	130.069	-16.603	-27.5383	118.021	-19.1487	-56.2809	106.26	-13.6426	-83.9598	100.919	-20.4481	-103.599	177.449	-24.6802	-86.9796	178.924	-18.1587	-111.577	170.551	-23.9651	-143.646	190.765	-54.1751	-83.1857	192.485	-60.6303	-115.577	179.457	-75.5878	-143.719	172.159	-81.3223	-79.8287	152.658	-90.6112	-96.4554	120.093	-94.4545	-92.2399	163.333	-97.8775	-64.2387	138.853	-98.9309	-73.9979	115.993	-86.0561	-60.8907	179.954	-58.0621	-20.9725	170.584	-58.3574	6.57479	166.498	-30.016	-16.1119	
22	0.183333	118.397	-11.0145	-27.2867	106.184	-15.384	-53.5136	97.0189	-13.6384	-85.9874	92.5312	-19.982	-107.321	162.911	5.58352	-86.394	162.04	10.9875	-114.718	158.2	6.74702	-141.202	187.547	-20.2395	-81.0038	195.089	-22.6757	-113.49	187.033	-37.0193	-147.705	180.662	-49.8639	-79.946	164.659	-65.092	-103.021	136.014	-82.0275	-97.4704	177.03	-66.4146	-70.8568	156.38	-81.6553	-79.0598	129.491	-74.4042	-64.958	181.942	-30.4479	-28.0836	169.181	-35.361	4.69095	156.72	-9.64684	-20.5292	
23	0.191667	101.927	-6.80127	-25.7395	92.5505	-12.8321	-55.3242	84.4787	-14.6756	-81.8518	77.1803	-18.7962	-107.225	141.023	23.3144	-83.2725	133.663	34.5607	-113.57	132.961	29.1951	-139.541	168.225	12.945	-82.667	178.438	14.3176	-114.877	176.812	4.18712	-147.158	171.585	-20.7857	-85.8868	162.231	-43.1294	-108.06	135.732	-63.1798	-103.668	177.079	-38.39	-75.6573	162.056	-54.301	-87.3882	137.211	-63.8671	-67.6777	171.635	-7.68064	-31.5834	163.998	-14.6241	1.87592	139.51	6.15422	-17.5118	
